{
  "asset": {
    "generator": "Khronos glTF Blender I/O v1.5.17",
    "version": "2.0"
  },
  "extensionsUsed": [
    "KHR_texture_transform"
  ],
  "extensionsRequired": [
    "KHR_texture_transform"
  ],
  "scene": 0,
  "scenes": [
    {
      "name": "Scene",
      "nodes": [
        0
      ]
    }
  ],
  "nodes": [
    {
      "mesh": 0,
      "name": "sphere_gltf"
    }
  ],
  "materials": [
    {
      "doubleSided": true,
      "name": "fabric_pattern_05",
      "normalTexture": {
        "extensions": {
          "KHR_texture_transform": {
            "offset": [
              0,
              -1
            ],
            "scale": [
              2,
              2
            ]
          }
        },
        "index": 0
      },
      "pbrMetallicRoughness": {
        "baseColorTexture": {
          "extensions": {
            "KHR_texture_transform": {
              "offset": [
                0,
                -1
              ],
              "scale": [
                2,
                2
              ]
            }
          },
          "index": 1
        },
        "metallicFactor": 0,
        "metallicRoughnessTexture": {
          "extensions": {
            "KHR_texture_transform": {
              "offset": [
                0,
                -1
              ],
              "scale": [
                2,
                2
              ]
            }
          },
          "index": 2
        }
      }
    }
  ],
  "meshes": [
    {
      "name": "Sphere.002",
      "primitives": [
        {
          "attributes": {
            "POSITION": 0,
            "NORMAL": 1,
            "TEXCOORD_0": 2
          },
          "indices": 3,
          "material": 0
        }
      ]
    }
  ],
  "textures": [
    {
      "sampler": 0,
      "source": 0
    },
    {
      "sampler": 0,
      "source": 1
    },
    {
      "sampler": 0,
      "source": 2
    }
  ],
  "images": [
    {
      "mimeType": "image/jpeg",
      "name": "fabric_pattern_05_nor_gl_4k",
      "uri": "textures/fabric_pattern_05_nor_gl_1k.jpg"
    },
    {
      "mimeType": "image/jpeg",
      "name": "fabric_pattern_05_Col_01_4k",
      "uri": "textures/fabric_pattern_05_col_01_1k.jpg"
    },
    {
      "mimeType": "image/jpeg",
      "name": "fabric_pattern_05_rough_4k",
      "uri": "textures/fabric_pattern_05_rough_1k.jpg"
    }
  ],
  "accessors": [
    {
      "bufferView": 0,
      "componentType": 5126,
      "count": 53893,
      "max": [
        0.24999701976776123,
        0.24999657273292542,
        0.24999721348285675
      ],
      "min": [
        -0.24999704957008362,
        -0.24999748170375824,
        -0.24999721348285675
      ],
      "type": "VEC3"
    },
    {
      "bufferView": 1,
      "componentType": 5126,
      "count": 53893,
      "type": "VEC3"
    },
    {
      "bufferView": 2,
      "componentType": 5126,
      "count": 53893,
      "type": "VEC2"
    },
    {
      "bufferView": 3,
      "componentType": 5123,
      "count": 322170,
      "type": "SCALAR"
    }
  ],
  "bufferViews": [
    {
      "buffer": 0,
      "byteLength": 646716,
      "byteOffset": 0
    },
    {
      "buffer": 0,
      "byteLength": 646716,
      "byteOffset": 646716
    },
    {
      "buffer": 0,
      "byteLength": 431144,
      "byteOffset": 1293432
    },
    {
      "buffer": 0,
      "byteLength": 644340,
      "byteOffset": 1724576
    }
  ],
  "samplers": [
    {
      "magFilter": 9729,
      "minFilter": 9987
    }
  ],
  "buffers": [
    {
      "byteLength": 2368916,
      "uri": "fabric_pattern_05.bin"
    }
  ]
}